# Blender v2.79 (sub 0) OBJ File: 'Gas Mask.blend'
# www.blender.org
mtllib Gas Mask Filter.mtl
o Filter_Cylinder
v 2.957183 1.673590 -1.393681
v 2.578309 2.348330 -1.393681
v 3.619322 2.045388 -1.146942
v 3.240448 2.720128 -1.146942
v 4.028546 2.275171 -0.500973
v 3.649672 2.949912 -0.500973
v 4.028546 2.275171 0.297489
v 3.649672 2.949912 0.297489
v 3.619322 2.045388 0.943458
v 3.240448 2.720128 0.943458
v 2.957183 1.673590 1.190196
v 2.578309 2.348330 1.190196
v 2.295044 1.301792 0.943457
v 1.916170 1.976533 0.943457
v 1.885820 1.072008 0.297488
v 1.506946 1.746749 0.297488
v 1.885820 1.072008 -0.500974
v 1.506946 1.746749 -0.500974
v 2.295044 1.301792 -1.146943
v 1.916171 1.976533 -1.146943
v 2.936035 2.549197 -0.666421
v 2.578309 2.348330 -0.799723
v 3.157122 2.673340 -0.317430
v 3.157122 2.673340 0.113945
v 2.936035 2.549197 0.462936
v 2.578309 2.348330 0.596238
v 2.220583 2.147464 0.462936
v 1.999496 2.023321 0.113945
v 1.999496 2.023321 -0.317430
v 2.220583 2.147464 -0.666421
v 2.739387 2.899412 -0.666421
v 2.381660 2.698545 -0.799723
v 2.960473 3.023554 -0.317430
v 2.960473 3.023554 0.113945
v 2.739386 2.899412 0.462936
v 2.381660 2.698545 0.596238
v 2.023934 2.497678 0.462936
v 1.802847 2.373536 0.113945
v 1.802847 2.373536 -0.317430
v 2.023934 2.497678 -0.666421
v 2.957183 1.673590 -1.336915
v 3.590229 2.029052 -1.101018
v 3.981472 2.248739 -0.483432
v 3.981472 2.248739 0.279947
v 3.590229 2.029051 0.897534
v 2.957183 1.673590 1.133431
v 2.324137 1.318128 0.897533
v 1.932893 1.098441 0.279947
v 1.932893 1.098441 -0.483432
v 2.324137 1.318128 -1.101019
v 3.000067 1.597217 -1.336915
v 3.633113 1.952679 -1.101018
v 4.024357 2.172366 -0.483432
v 4.024357 2.172366 0.279947
v 3.633113 1.952679 0.897534
v 3.000067 1.597217 1.133431
v 2.367021 1.241755 0.897533
v 1.975777 1.022068 0.279947
v 1.975777 1.022068 -0.483432
v 2.367022 1.241756 -1.101019
v 2.995671 1.605046 -1.401507
v 3.661821 1.979097 -1.153274
v 4.073524 2.210272 -0.503392
v 4.073524 2.210272 0.299907
v 3.661821 1.979096 0.949789
v 2.995671 1.605046 1.198022
v 2.329520 1.230996 0.949789
v 1.917817 0.999821 0.299907
v 1.917817 0.999821 -0.503392
v 2.329521 1.230996 -1.153275
v 3.297524 1.067473 -1.401507
v 3.963674 1.441523 -1.153274
v 4.375378 1.672699 -0.503392
v 4.375378 1.672699 0.299907
v 3.963674 1.441523 0.949789
v 3.297524 1.067473 1.198022
v 2.631374 0.693423 0.949789
v 2.219671 0.462247 0.299907
v 2.219671 0.462247 -0.503392
v 2.631374 0.693423 -1.153275
vt 0.416072 0.324580
vt 0.398757 0.374288
vt 0.367570 0.350612
vt 0.376925 0.323756
vt 0.693269 0.321672
vt 0.709006 0.273237
vt 0.711935 0.275365
vt 0.696889 0.321672
vt 0.355531 0.404326
vt 0.344217 0.366840
vt 0.302904 0.403219
vt 0.315785 0.366242
vt 0.260979 0.371391
vt 0.293134 0.349046
vt 0.245770 0.320998
vt 0.284917 0.321821
vt 0.263085 0.271289
vt 0.294272 0.294966
vt 0.306311 0.241252
vt 0.317625 0.278738
vt 0.400862 0.274187
vt 0.368707 0.296531
vt 0.358937 0.242358
vt 0.346057 0.279336
vt 0.523369 0.661684
vt 0.499540 0.735024
vt 0.437154 0.780350
vt 0.360040 0.780350
vt 0.297654 0.735024
vt 0.273824 0.661684
vt 0.297654 0.588345
vt 0.360040 0.543019
vt 0.437154 0.543019
vt 0.499540 0.588345
vt 0.709006 0.370106
vt 0.711935 0.367978
vt 0.750206 0.400040
vt 0.751325 0.396597
vt 0.858072 0.321672
vt 0.842335 0.370106
vt 0.839406 0.367978
vt 0.854452 0.321672
vt 0.801134 0.400040
vt 0.800015 0.396597
vt 0.842335 0.273237
vt 0.839406 0.275365
vt 0.801134 0.243303
vt 0.800015 0.246746
vt 0.750207 0.243303
vt 0.751326 0.246746
vt 0.852795 0.265587
vt 0.804956 0.230795
vt 0.806519 0.225981
vt 0.856891 0.262611
vt 0.804930 0.412921
vt 0.852790 0.378139
vt 0.856887 0.381113
vt 0.806496 0.417735
vt 0.679694 0.321862
vt 0.697933 0.378140
vt 0.693837 0.381115
vt 0.674632 0.321862
vt 0.745808 0.230797
vt 0.744242 0.225983
vt 0.871071 0.321863
vt 0.876134 0.321862
vt 0.745776 0.412922
vt 0.744212 0.417736
vt 0.697963 0.265583
vt 0.693866 0.262610
vt 0.923713 0.791467
vt 0.830993 0.858783
vt 0.716414 0.858743
vt 0.623741 0.791363
vt 0.588371 0.682380
vt 0.623816 0.573421
vt 0.716536 0.506105
vt 0.831115 0.506145
vt 0.923788 0.573525
vt 0.959157 0.682508
vt 0.525511 0.323517
vt 0.432998 0.320022
vt 0.410544 0.261605
vt 0.487716 0.209382
vt 0.357560 0.226709
vt 0.389839 0.139163
vt 0.294146 0.228814
vt 0.269542 0.139163
vt 0.244478 0.266931
vt 0.172327 0.209296
vt 0.227525 0.325966
vt 0.135869 0.322996
vt 0.249956 0.382607
vt 0.175285 0.435231
vt 0.304787 0.413586
vt 0.273476 0.500881
vt 0.368014 0.415776
vt 0.390007 0.503916
vt 0.416669 0.379170
vt 0.487753 0.436994
vt 0.143530 0.669444
vt 0.108959 0.692703
vt 0.059217 0.661115
vt 0.122649 0.613719
vt 0.110936 0.771949
vt 0.143622 0.800442
vt 0.126464 0.856757
vt 0.064378 0.809112
vt 0.218351 0.779560
vt 0.232175 0.739307
vt 0.291705 0.736066
vt 0.268105 0.811517
vt 0.185996 0.671351
vt 0.202234 0.613719
vt 0.095917 0.731884
vt 0.037683 0.736580
vt 0.184665 0.803282
vt 0.205008 0.858237
vt 0.219872 0.697993
vt 0.266687 0.660601
vt 0.699252 0.376951
vt 0.681817 0.322335
vt 0.688445 0.322343
vt 0.704676 0.373203
vt 0.850205 0.376296
vt 0.804007 0.410535
vt 0.801677 0.404435
vt 0.844693 0.372749
vt 0.803660 0.233133
vt 0.851248 0.266664
vt 0.845828 0.270341
vt 0.801656 0.239325
vt 0.699493 0.266741
vt 0.705004 0.270360
vt 0.746193 0.411149
vt 0.748204 0.404939
vt 0.868709 0.321856
vt 0.862099 0.321850
vt 0.746692 0.233133
vt 0.749011 0.239238
vt 0.721047 0.144582
vt 0.836813 0.145216
vt 0.817979 0.218449
vt 0.745174 0.216931
vt 0.621877 0.429413
vt 0.585191 0.318376
vt 0.660683 0.315505
vt 0.680811 0.381441
vt 0.931949 0.430331
vt 0.835160 0.497205
vt 0.809409 0.424801
vt 0.869421 0.386668
vt 0.932417 0.209279
vt 0.875025 0.257397
vt 0.623562 0.208171
vt 0.684913 0.251894
vt 0.717625 0.497205
vt 0.737508 0.423360
vt 0.969880 0.319465
vt 0.894396 0.322343
vn -0.4896 0.8719 -0.0000
vn 0.4896 -0.8719 -0.0000
vn -0.5865 0.8055 0.0850
vn -0.3824 0.9201 0.0850
vn -0.4455 0.8847 -0.1376
vn -0.6106 0.7920 0.0000
vn -0.4455 0.8847 0.1376
vn -0.3824 0.9201 -0.0850
vn -0.5865 0.8055 -0.0850
vn -0.5234 0.8409 0.1375
vn -0.3583 0.9336 0.0000
vn -0.5234 0.8409 -0.1375
vn 0.3152 -0.5613 -0.7653
vn -0.3152 0.5613 -0.7653
vn 0.0770 0.7815 -0.6191
vn 0.7074 -0.3410 -0.6191
vn 0.3194 0.9176 -0.2365
vn 0.9498 -0.2049 -0.2365
vn 0.3194 0.9176 0.2365
vn 0.9498 -0.2049 0.2365
vn 0.0770 0.7815 0.6191
vn 0.7074 -0.3410 0.6191
vn -0.3152 0.5613 0.7653
vn 0.3152 -0.5613 0.7653
vn -0.7074 0.3410 0.6191
vn -0.0770 -0.7815 0.6191
vn -0.9498 0.2049 0.2365
vn -0.3194 -0.9176 0.2365
vn -0.9498 0.2049 -0.2365
vn -0.3194 -0.9176 -0.2365
vn -0.7074 0.3410 -0.6191
vn -0.0770 -0.7815 -0.6191
vn -0.8988 0.3941 0.1919
vn -0.7020 0.5046 0.5025
vn -0.0654 0.8621 0.5025
vn 0.1314 0.9726 0.1919
vn -0.0654 0.8621 -0.5025
vn -0.3837 0.6833 -0.6211
vn -0.8988 0.3941 -0.1919
vn -0.3837 0.6833 0.6211
vn 0.1314 0.9726 -0.1919
vn -0.7020 0.5046 -0.5025
vn 0.7020 -0.5046 0.5025
vn 0.3837 -0.6833 0.6211
vn -0.4080 0.7266 0.5527
vn -0.1247 0.8857 0.4472
vn 0.7020 -0.5046 -0.5025
vn 0.8988 -0.3941 -0.1919
vn 0.0503 0.9840 -0.1708
vn -0.1247 0.8857 -0.4472
vn -0.1314 -0.9726 -0.1919
vn 0.0654 -0.8621 -0.5025
vn -0.6913 0.5676 -0.4472
vn -0.8664 0.4693 -0.1708
vn 0.0654 -0.8621 0.5025
vn -0.6913 0.5676 0.4472
vn 0.8988 -0.3941 0.1919
vn 0.0503 0.9840 0.1708
vn 0.3837 -0.6833 -0.6211
vn -0.4080 0.7266 -0.5527
vn -0.1314 -0.9726 0.1919
vn -0.8664 0.4693 0.1708
vn -0.9391 0.2599 -0.2247
vn -0.7088 0.3892 -0.5883
vn -0.3360 0.5985 0.7272
vn -0.7088 0.3892 0.5883
vn 0.2670 0.9371 -0.2247
vn 0.2670 0.9371 0.2247
vn -0.3360 0.5985 -0.7272
vn -0.9391 0.2599 0.2247
vn 0.0367 0.8078 0.5883
vn 0.0367 0.8078 -0.5883
usemtl None
s off
f 2/1/1 20/2/1 30/3/1 22/4/1
f 11/5/2 13/6/2 47/7/2 46/8/2
f 20/2/1 18/9/1 29/10/1 30/3/1
f 18/9/1 16/11/1 28/12/1 29/10/1
f 16/11/1 14/13/1 27/14/1 28/12/1
f 14/13/1 12/15/1 26/16/1 27/14/1
f 12/15/1 10/17/1 25/18/1 26/16/1
f 10/17/1 8/19/1 24/20/1 25/18/1
f 4/21/1 2/1/1 22/4/1 21/22/1
f 8/19/1 6/23/1 23/24/1 24/20/1
f 6/23/1 4/21/1 21/22/1 23/24/1
f 31/25/1 32/26/1 40/27/1 39/28/1 38/29/1 37/30/1 36/31/1 35/32/1 34/33/1 33/34/1
f 9/35/2 11/5/2 46/8/2 45/36/2
f 7/37/2 9/35/2 45/36/2 44/38/2
f 1/39/2 3/40/2 42/41/2 41/42/2
f 5/43/2 7/37/2 44/38/2 43/44/2
f 3/40/2 5/43/2 43/44/2 42/41/2
f 19/45/2 1/39/2 41/42/2 50/46/2
f 17/47/2 19/45/2 50/46/2 49/48/2
f 15/49/2 17/47/2 49/48/2 48/50/2
f 13/6/2 15/49/2 48/50/2 47/7/2
f 52/51/3 53/52/3 63/53/3 62/54/3
f 59/55/4 60/56/4 70/57/4 69/58/4
f 56/59/5 57/60/5 67/61/5 66/62/5
f 53/52/6 54/63/6 64/64/6 63/53/6
f 60/56/7 51/65/7 61/66/7 70/57/7
f 57/60/8 58/67/8 68/68/8 67/61/8
f 54/63/9 55/69/9 65/70/9 64/64/9
f 51/65/10 52/51/10 62/54/10 61/66/10
f 58/67/11 59/55/11 69/58/11 68/68/11
f 55/69/12 56/59/12 66/62/12 65/70/12
f 71/71/2 72/72/2 73/73/2 74/74/2 75/75/2 76/76/2 77/77/2 78/78/2 79/79/2 80/80/2
s 1
f 1/81/13 2/82/14 4/83/15 3/84/16
f 3/84/16 4/83/15 6/85/17 5/86/18
f 5/86/18 6/85/17 8/87/19 7/88/20
f 7/88/20 8/87/19 10/89/21 9/90/22
f 9/90/22 10/89/21 12/91/23 11/92/24
f 11/92/24 12/91/23 14/93/25 13/94/26
f 13/94/26 14/93/25 16/95/27 15/96/28
f 15/96/28 16/95/27 18/97/29 17/98/30
f 17/98/30 18/97/29 20/99/31 19/100/32
f 19/100/32 20/99/31 2/82/14 1/81/13
f 28/101/33 27/102/34 37/103/25 38/104/27
f 25/105/35 24/106/36 34/107/19 35/108/21
f 21/109/37 22/110/38 32/111/14 31/112/15
f 29/113/39 28/101/33 38/104/27 39/114/29
f 26/115/40 25/105/35 35/108/21 36/116/23
f 23/117/41 21/109/37 31/112/15 33/118/17
f 30/119/42 29/113/39 39/114/29 40/120/31
f 27/102/34 26/115/40 36/116/23 37/103/25
f 24/106/36 23/117/41 33/118/17 34/107/19
f 22/110/38 30/119/42 40/120/31 32/111/14
f 45/121/43 46/122/44 56/123/45 55/124/46
f 42/125/47 43/126/48 53/127/49 52/128/50
f 49/129/51 50/130/52 60/131/53 59/132/54
f 46/122/44 47/133/55 57/134/56 56/123/45
f 43/126/48 44/135/57 54/136/58 53/127/49
f 50/130/52 41/137/59 51/138/60 60/131/53
f 47/133/55 48/139/61 58/140/62 57/134/56
f 44/135/57 45/121/43 55/124/46 54/136/58
f 41/137/59 42/125/47 52/128/50 51/138/60
f 48/139/61 49/129/51 59/132/54 58/140/62
f 69/141/63 70/142/64 80/143/32 79/144/30
f 66/145/65 67/146/66 77/147/26 76/148/24
f 63/149/67 64/150/68 74/151/20 73/152/18
f 70/142/64 61/153/69 71/154/13 80/143/32
f 67/146/66 68/155/70 78/156/28 77/147/26
f 64/150/68 65/157/71 75/158/22 74/151/20
f 61/153/69 62/159/72 72/160/16 71/154/13
f 68/155/70 69/141/63 79/144/30 78/156/28
f 65/157/71 66/145/65 76/148/24 75/158/22
f 62/159/72 63/149/67 73/152/18 72/160/16
