# Blender v2.78 (sub 0) OBJ File: 'Panzer VI Tank.blend'
# www.blender.org
mtllib Panzer VI Tank Door.mtl
o Cube.002
v 0.002512 4.013928 -1.800437
v 0.002512 4.169831 -1.800437
v 0.191089 4.013928 -1.731801
v 0.191089 4.169831 -1.731801
v 0.291429 4.013928 -1.558008
v 0.291429 4.169831 -1.558008
v 0.256581 4.013928 -1.360378
v 0.256581 4.169831 -1.360378
v 0.102852 4.013928 -1.231384
v 0.102852 4.169831 -1.231384
v -0.097827 4.013928 -1.231384
v -0.097827 4.169831 -1.231384
v -0.251556 4.013928 -1.360378
v -0.251556 4.169831 -1.360378
v -0.286404 4.013928 -1.558008
v -0.286404 4.169831 -1.558008
v -0.186064 4.013928 -1.731801
v -0.186064 4.169831 -1.731801
v 0.166392 4.194106 -1.702368
v 0.002512 4.194106 -1.762015
v 0.253590 4.194106 -1.551336
v 0.223307 4.194106 -1.379589
v 0.089711 4.194106 -1.267489
v -0.084686 4.194106 -1.267489
v -0.218282 4.194106 -1.379589
v -0.248565 4.194106 -1.551336
v -0.161367 4.194106 -1.702368
vt 3.1855 -0.3812
vt 2.6206 0.3243
vt 1.7552 0.4842
vt 0.9942 0.0237
vt 0.6936 -0.8417
vt 0.9942 -1.7071
vt 1.7552 -2.1676
vt 2.6206 -2.0076
vt 3.1855 -1.3022
vt -1.5818 1.4958
vt -2.3674 1.4958
vt -2.3674 0.6840
vt -1.5818 0.6840
vt -0.7962 0.6840
vt -0.7962 1.4958
vt -1.5818 1.4958
vt -0.7962 2.5556
vt -1.5818 2.5556
vt -0.7962 3.3674
vt -1.5818 3.3674
vt -0.7962 0.6840
vt -0.0107 0.6840
vt -0.0107 1.4958
vt -0.7962 1.4958
vt -0.0107 2.5556
vt -0.7962 2.5556
vt -0.0107 3.3674
vt -0.7962 3.3674
vt 2.7174 -2.1834
vt 3.3674 -1.3715
vt -1.5818 3.3674
vt -2.3674 3.3674
vt -2.3674 2.5556
vt -1.5818 2.5556
vt 0.5000 -0.3118
vt -0.1500 0.5000
vt -1.1458 0.6840
vt -2.0215 0.1542
vt -2.3674 -0.8417
vt -2.0215 -1.8375
vt -1.1458 -2.3674
vt -0.1500 -2.1834
vt 0.5000 -1.3715
vt 3.3674 -0.3118
vt 2.7174 0.5000
vt 1.7216 0.6840
vt 0.8458 0.1542
vt 0.5000 -0.8417
vt 0.8458 -1.8375
vt 1.7216 -2.3674
vn 0.0000 1.0000 -0.0000
vn 0.0000 -0.6376 -0.7703
vn 0.0000 0.4429 -0.8965
vn 0.5763 0.4429 -0.6868
vn 0.4952 -0.6376 -0.5901
vn 0.8829 0.4429 -0.1557
vn 0.7586 -0.6376 -0.1338
vn 0.7764 0.4429 0.4483
vn 0.6671 -0.6376 0.3852
vn 0.3066 0.4429 0.8425
vn 0.2635 -0.6376 0.7239
vn -0.3066 0.4429 0.8425
vn -0.2635 -0.6376 0.7239
vn -0.7764 0.4429 0.4483
vn -0.6671 -0.6376 0.3852
vn -0.8829 0.4429 -0.1557
vn -0.7586 -0.6376 -0.1338
vn 0.3278 0.9430 -0.0578
vn 0.2882 0.9430 0.1664
vn -0.5763 0.4429 -0.6868
vn -0.4952 -0.6376 -0.5901
vn 0.2140 0.9430 -0.2550
vn -0.2140 0.9430 -0.2550
vn 0.0000 0.9430 -0.3329
vn -0.3278 0.9430 -0.0578
vn -0.2883 0.9430 0.1664
vn -0.1138 0.9430 0.3128
vn 0.1138 0.9430 0.3128
usemtl None
s off
f 19/1/1 20/2/1 27/3/1 26/4/1 25/5/1 24/6/1 23/7/1 22/8/1 21/9/1
s 1
f 1/10/2 2/11/3 4/12/4 3/13/5
f 3/13/5 4/14/4 6/15/6 5/16/7
f 5/16/7 6/15/6 8/17/8 7/18/9
f 7/18/9 8/17/8 10/19/10 9/20/11
f 9/21/11 10/22/10 12/23/12 11/24/13
f 11/24/13 12/23/12 14/25/14 13/26/15
f 13/26/15 14/25/14 16/27/16 15/28/17
f 8/29/8 6/30/6 21/9/18 22/8/19
f 15/31/17 16/32/16 18/33/20 17/34/21
f 17/34/21 18/33/20 2/11/3 1/10/2
f 1/35/2 3/36/5 5/37/7 7/38/9 9/39/11 11/40/13 13/41/15 15/42/17 17/43/21
f 6/30/6 4/44/4 19/1/22 21/9/18
f 2/45/3 18/46/20 27/3/23 20/2/24
f 18/46/20 16/47/16 26/4/25 27/3/23
f 16/47/16 14/48/14 25/5/26 26/4/25
f 14/48/14 12/49/12 24/6/27 25/5/26
f 12/49/12 10/50/10 23/7/28 24/6/27
f 10/50/10 8/29/8 22/8/19 23/7/28
f 4/44/4 2/45/3 20/2/24 19/1/22
