# Blender v2.78 (sub 0) OBJ File: 'Panzer VI Tank.blend'
# www.blender.org
mtllib Panzer VI Tank Top.mtl
o Cube.001
v 0.000514 3.807200 -1.777401
v 0.178824 3.807200 -1.712501
v 0.273700 3.807200 -1.548170
v 0.240750 3.807200 -1.361300
v 0.095390 3.807200 -1.239329
v -0.094363 3.807200 -1.239329
v -0.239722 3.807200 -1.361300
v -0.272672 3.807200 -1.548170
v -0.177796 3.807200 -1.712501
v -0.598073 3.078969 0.206185
v -0.401927 3.762033 0.072012
v -1.100000 3.078857 -0.945411
v -1.100000 4.022532 -0.946605
v 0.598073 3.078969 0.206185
v 0.401927 3.762033 0.072012
v 1.100000 3.078857 -0.945411
v 1.100000 4.022532 -0.946605
v -1.100000 3.077451 -2.057202
v -1.100000 4.021126 -2.058396
v 1.100000 3.077451 -2.057202
v 1.100000 4.021126 -2.058396
v 1.000000 3.977460 -2.369955
v -1.000000 3.077057 -2.368761
v -1.000000 3.977460 -2.369955
v 1.000000 3.077057 -2.368761
v -1.000000 3.166657 -2.369358
v 1.000000 3.166657 -2.369358
v -0.421503 3.876492 -3.019037
v 0.421503 3.876492 -3.019037
v -0.657681 3.166657 -3.306921
v 0.657681 3.166657 -3.306921
v -0.094363 4.022161 -1.239329
v 0.095390 4.022161 -1.239329
v 0.178824 4.021564 -1.712501
v 0.000514 4.021481 -1.777401
v 0.240750 4.022007 -1.361300
v -0.239722 4.022007 -1.361300
v -0.177796 4.021564 -1.712501
v -0.272672 4.021771 -1.548170
v 0.273700 4.021771 -1.548170
v -1.100000 3.170400 -2.057799
v 1.100000 3.170400 -2.057799
vt 1.2493 0.4366
vt 1.1385 0.3206
vt 1.1385 0.1693
vt 1.2493 0.0534
vt 1.4191 0.0271
vt 1.5684 0.1028
vt 1.6274 0.2450
vt 1.5684 0.3872
vt 1.4191 0.4628
vt 2.9273 1.2294
vt 2.9273 2.1159
vt 2.1457 1.7852
vt 2.1756 1.6362
vt 0.9285 2.1159
vt 2.2931 2.9273
vt 1.5628 2.9273
vt 0.9285 1.2294
vt 1.0194 0.9808
vt 2.8364 0.9808
vt 2.3109 0.4628
vt 1.5450 0.4628
vt 2.0136 1.8825
vt 1.6793 1.6362
vt 1.7092 1.7852
vt 1.8413 1.8825
vt 1.7655 1.5052
vt 2.0894 1.5052
vt 1.9275 1.4534
vt 1.1345 -0.0625
vt 1.1385 0.0797
vt 0.9442 0.0797
vt 0.9403 -0.0625
vt 1.4310 0.0271
vt 1.4325 -0.1066
vt 1.6274 -0.1072
vt 1.6257 0.0265
vt 1.4310 -0.2545
vt 1.6261 -0.2551
vt 1.1385 0.0797
vt 1.1246 0.1956
vt 0.9309 0.1956
vt 0.9449 0.0797
vt 1.1246 0.3469
vt 0.9309 0.3469
vt 1.1385 0.4628
vt 0.9449 0.4628
vt 1.2346 0.0265
vt 1.2361 -0.1214
vt 1.4310 -0.1208
vt 1.4297 0.0271
vt 1.2346 -0.2551
vt 1.4293 -0.2545
vt 1.1385 -0.2047
vt 0.9442 -0.2047
vt 0.0818 -1.9273
vt 0.7068 -1.8263
vt 0.9285 -0.9941
vt 0.0715 -0.9948
vt -1.0702 1.0585
vt -1.9273 1.0592
vt -1.7056 0.2270
vt -1.0805 0.1260
vt 1.6274 -0.4910
vt 2.2547 -0.3346
vt 2.2547 0.3064
vt 1.6274 0.4628
vt -1.0702 2.0090
vt 0.9285 2.0090
vt 0.4725 2.9273
vt -0.6142 2.9273
vt 0.9285 -0.1082
vt 0.1559 -0.1084
vt 0.0715 -0.1089
vt -1.0702 1.9445
vt -1.1546 1.9449
vt -1.9273 1.9452
vt -1.0702 1.1224
vt 0.9285 1.1224
vt -1.8903 2.1905
vt -1.1539 2.1902
vt -0.9794 0.8740
vt 0.8377 0.8740
vt -1.0725 2.1898
vt 0.1551 0.1369
vt 0.0738 0.1365
vt 2.9273 0.2745
vt 2.2547 0.4628
vt 2.2547 -0.5861
vt 2.9273 -0.3977
vt -0.8610 -0.7209
vt -0.7803 -0.7209
vt -0.7803 0.8740
vt -0.8610 0.8740
vt -0.7803 0.6010
vt -0.7803 -0.4479
vt 0.0715 -0.7209
vt 0.0715 0.8740
vt 0.8915 0.1372
vt -1.1628 2.9273
vt -1.8126 2.6908
vt 0.8139 0.6374
vt 0.1641 0.8740
vn 0.0000 1.0000 -0.0000
vn -0.0000 1.0000 -0.0013
vn 0.0000 0.9688 0.2478
vn 0.0000 0.9903 -0.1388
vn 0.0000 0.9881 -0.1537
vn 0.0000 0.6376 0.7703
vn -0.4952 0.6376 0.5901
vn -0.3921 0.7931 0.4661
vn 0.0000 0.7772 0.6292
vn -0.7586 0.6376 0.1338
vn -0.6004 0.7928 0.1047
vn -0.6671 0.6376 -0.3852
vn -0.5276 0.7926 -0.3058
vn -0.2635 0.6376 -0.7239
vn -0.2083 0.7924 -0.5734
vn 0.2635 0.6376 -0.7239
vn 0.2083 0.7924 -0.5734
vn 0.6671 0.6376 -0.3852
vn 0.5276 0.7926 -0.3058
vn 0.7586 0.6376 0.1338
vn 0.6004 0.7928 0.1047
vn 0.4952 0.6376 0.5901
vn 0.3921 0.7931 0.4661
vn -0.4572 -0.5343 0.7110
vn -0.3398 0.6050 0.7201
vn -0.6905 0.6858 0.2298
vn -0.7442 -0.6380 0.1976
vn 0.7442 -0.6380 0.1976
vn 0.6905 0.6858 0.2298
vn 0.3398 0.6050 0.7201
vn 0.4572 -0.5343 0.7110
vn -0.7135 0.6844 -0.1497
vn -0.9879 -0.0005 -0.1549
vn -0.7297 -0.6743 -0.1130
vn 0.7297 -0.6743 -0.1130
vn 0.9879 -0.0005 -0.1549
vn 0.7135 0.6844 -0.1497
vn 0.6364 0.6782 -0.3674
vn 0.7818 -0.1604 -0.6026
vn -0.4734 -0.5979 -0.6468
vn 0.4734 -0.5979 -0.6468
vn -0.7818 -0.1604 -0.6026
vn 0.3101 0.7136 -0.6281
vn 0.4568 -0.4689 -0.7559
vn -0.4568 -0.4689 -0.7559
vn -0.3101 0.7136 -0.6281
vn -0.6364 0.6782 -0.3674
usemtl Camo
s off
f 1/1/1 9/2/1 8/3/1 7/4/1 6/5/1 5/6/1 4/7/1 3/8/1 2/9/1
f 19/10/2 13/11/2 37/12/2 39/13/2
f 17/14/3 13/11/3 11/15/3 15/16/3
f 19/10/4 21/17/4 22/18/4 24/19/4
f 28/20/5 24/19/5 22/18/5 29/21/5
f 37/12/2 13/11/2 32/22/2
f 17/14/2 21/17/2 40/23/2 36/24/2
f 36/24/2 33/25/2 17/14/2
f 13/11/2 17/14/2 33/25/2 32/22/2
f 40/23/2 21/17/2 34/26/2
f 38/27/2 19/10/2 39/13/2
f 21/17/2 19/10/2 35/28/2 34/26/2
f 35/28/2 19/10/2 38/27/2
s 1
f 1/29/6 2/30/7 34/31/8 35/32/9
f 2/33/7 3/34/10 40/35/11 34/36/8
f 3/34/10 4/37/12 36/38/13 40/35/11
f 4/39/12 5/40/14 33/41/15 36/42/13
f 5/40/14 6/43/16 32/44/17 33/41/15
f 6/43/16 7/45/18 37/46/19 32/44/17
f 7/47/18 8/48/20 39/49/21 37/50/19
f 8/48/20 9/51/22 38/52/23 39/49/21
f 9/53/22 1/29/6 35/32/9 38/54/23
f 10/55/24 11/56/25 13/57/26 12/58/27
f 16/59/28 17/60/29 15/61/30 14/62/31
f 14/63/31 15/64/30 11/65/25 10/66/24
f 12/67/27 16/68/28 14/69/31 10/70/24
f 12/58/27 13/57/26 19/71/32 41/72/33 18/73/34
f 17/60/29 16/59/28 20/74/35 42/75/36 21/76/37
f 16/68/28 12/67/27 18/77/34 20/78/35
f 22/79/38 21/76/37 42/75/36 27/80/39
f 20/78/35 18/77/34 23/81/40 25/82/41
f 20/74/35 25/83/41 27/80/39 42/75/36
f 18/73/34 41/72/33 26/84/42 23/85/40
f 29/86/43 31/87/44 30/88/45 28/89/46
f 23/90/40 26/91/42 27/92/39 25/93/41
f 30/94/45 31/95/44 27/96/39 26/97/42
f 41/72/33 19/71/32 24/98/47 26/84/42
f 31/99/44 29/100/43 22/79/38 27/80/39
f 28/101/46 30/102/45 26/84/42 24/98/47
